# AST/ASF file generated using VICON BodyLanguage
# -----------------------------------------------
:version 1.10
:name VICON
:units
  mass 1.0
  length 0.45
  angle deg
:documentation
   .ast/.asf automatically generated from VICON data using
   VICON BodyBuilder and BodyLanguage model FoxedUp or BRILLIANT.MOD
:root
   order TX TY TZ RX RY RZ
   axis XYZ
   position 0 0 0  
   orientation 0 0 0 
:bonedata
  begin
     id 1 
     name lhipjoint
     direction 0.558404 -0.748506 0.357664 
     length 2.4234 
     axis 0 0 0  XYZ
  end
  begin
     id 2 
     name lfemur
     direction 0.34202 -0.939693 0  
     length 7.14567  
     axis 0 0 20  XYZ
    dof rx ry rz
    limits (-160.0 20.0)
           (-70.0 70.0)
           (-60.0 70.0)
  end
  begin
     id 3 
     name ltibia
     direction 0.34202 -0.939693 0   
     length 8.13956   
     axis 0 0 20   XYZ
    dof rx
    limits (-10.0 170.0)
  end
  begin
     id 4 
     name lfoot
     direction 0.0791314 -0.217412 0.972867   
     length 2.00134   
     axis -90 7.62852e-016 20   XYZ
    dof rx rz
    limits (-45.0 90.0)
           (-70.0 20.0)
  end
  begin
     id 5 
     name ltoes
     direction 1.53547e-011 -4.21922e-011 1   
     length 1.00735   
     axis -90 7.62852e-016 20   XYZ
    dof rx
    limits (-90.0 20.0)
  end
  begin
     id 6 
     name rhipjoint
     direction -0.496392 -0.78327 0.374276   
     length 2.31584  
     axis 0 0 0  XYZ 
  end
  begin
     id 7 
     name rfemur
     direction -0.34202 -0.939693 0   
     length 7.47417   
     axis 0 0 -20   XYZ
    dof rx ry rz
    limits (-160.0 20.0)
           (-70.0 70.0)
           (-70.0 60.0)
  end
  begin
     id 8 
     name rtibia
     direction -0.34202 -0.939693 0   
     length 7.69071   
     axis 0 0 -20   XYZ
    dof rx
    limits (-10.0 170.0)
 end
 begin
     id 9 
     name rfoot
     direction -0.103069 -0.28318 0.953512   
     length 2.16135  
     axis -90 -7.62852e-016 -20   XYZ
    dof rx rz
    limits (-45.0 90.0)
           (-20.0 70.0)
  end
  begin
     id 10 
     name rtoes
     direction -1.53581e-011 -4.21904e-011 1   
     length 1.07867   
     axis -90 -7.62852e-016 -20   XYZ
    dof rx
    limits (-90.0 20.0)
  end
  begin
     id 11 
     name lowerback
     direction -0.0258961 0.994776 -0.0987407   
     length 2.19412   
     axis 0 0 0   XYZ
    dof rx ry rz
    limits (-20.0 45.0)
           (-30.0 30.0)
           (-30.0 30.0)
  end
  begin
     id 12 
     name upperback
     direction 0.0402454 0.999185 0.00320666   
     length 2.18445   
     axis 0 0 0   XYZ
    dof rx ry rz
    limits (-20.0 45.0)
           (-30.0 30.0)
           (-30.0 30.0)
  end
  begin
     id 13 
     name thorax
     direction 0.0519376 0.997415 0.0496558   
     length 2.21487   
     axis 0 0 0   XYZ
    dof rx ry rz
    limits (-20.0 45.0)
           (-30.0 30.0)
           (-30.0 30.0)
  end
  begin
     id 14 
     name lowerneck
     direction -0.0921276 0.983211 0.157506   
     length 1.61201   
     axis 0 0 0   XYZ
    dof rx ry rz
    limits (-20.0 45.0)
           (-30.0 30.0)
           (-30.0 30.0)
  end
  begin
     id 15 
     name upperneck
     direction 0.0820814 0.98162 -0.172292   
     length 1.65275   
     axis 0 0 0   XYZ
    dof rx ry rz
    limits (-20.0 45.0)
           (-30.0 30.0)
           (-30.0 30.0)
  end
  begin
     id 16
     name head
     direction 0.0336554 0.996413 -0.0776455  
     length 1.66415  
     axis 0 0 0   XYZ
    dof rx ry rz
    limits (-20.0 45.0)
           (-30.0 30.0)
           (-30.0 30.0)
  end
  begin
     id 17 
     name lclavicle
     direction 0.94696 0.284418 -0.149576  
     length 3.41447  
     axis 0 0 0   XYZ
    dof ry rz
    limits (-20.0 10.0)
           (0.0 20.0)
  end
  begin
     id 18 
     name lhumerus
     direction 1 -0.000130264 -9.81312e-005   
     length 5.19964   
     axis 180 -30 -90   XYZ
    dof rx ry rz
    limits (-60.0 90.0)
           (-90.0 90.0)
           (-90.0 90.0)
  end
  begin
     id 19
     name lradius
     direction 1 -4.48961e-011 1.43854e-026   
     length 3.32189   
     axis 180 -30 -90   XYZ
    dof rx
    limits (-10.0 170.0)
  end
  begin
     id 20
     name lwrist
     direction 1 -4.48958e-011 3.1502e-026   
     length 1.66095   
     axis -1.97692e-014 90 90   XYZ
    dof ry
    limits (-180.0 0.0)
 end
  begin
     id 21 
     name lhand
     direction 1 -4.48927e-011 6.3004e-026   
     length 0.645616   
     axis -4.02019e-014 90 90   XYZ
    dof rx rz
    limits (-90.0 90.0)
           (-45.0 45.0)
  end
  begin
     id 22 
     name lfingers
     direction 1 -4.4904e-011 1.26008e-025   
     length 0.520512   
     axis -8.04039e-014 90 90   XYZ
    dof rx
    limits (0.0 90.0)
  end
  begin
     id 23
     name lthumb
     direction 0.707107 -6.34947e-011 0.707107   
     length 0.747354   
     axis -90 45 2.85299e-015   XYZ
    dof rx rz
    limits (-45.0 45.0)
           (-45.0 45.0)
  end
  begin
     id 24 
     name rclavicle
     direction -0.909391 0.383475 -0.161107   
     length 3.25176  
     axis 0 0 0   XYZ 
    dof ry rz
    limits (-10.0 20.0)
           (-20.0 0.0)
  end
  begin
     id 25 
     name rhumerus
     direction -1 -4.48965e-011 -1.81384e-027  
     length 5.6595   
     axis 180 30 90   XYZ
    dof rx ry rz
    limits (-90.0 60.0)
           (-90.0 90.0)
           (-90.0 90.0)
  end
  begin
     id 26 
     name rradius
     direction -1 -4.48996e-011 -8.09397e-027   
     length 3.37604   
     axis 180 30 90   XYZ
    dof rx
    limits (-10.0 170.0)
  end
  begin
     id 27 
     name rwrist
     direction -1 -4.48927e-011 -1.56669e-026   
     length 1.68802   
     axis 1.21142e-014 -90 -90   XYZ
    dof ry
    limits (-180.0 0.0)
  end
  begin
     id 28
     name rhand
     direction -1 -4.48912e-011 -3.13339e-026   
     length 0.824702   
     axis 1.99937e-014 -90 -90   XYZ
    dof rx rz
    limits (-90.0 90.0)
           (-45.0 45.0)
  end
  begin
     id 29
     name rfingers
     direction -1 -4.49011e-011 -6.26677e-026   
     length 0.664896   
     axis 3.99874e-014 -90 -90   XYZ
    dof rx
    limits (0.0 90.0)
  end
  begin
     id 30
     name rthumb
     direction -0.707107 -6.34931e-011 0.707107   
     length 0.954662   
     axis -90 -45 -2.85299e-015   XYZ
    dof rx rz
    limits (-45.0 45.0)
           (-45.0 45.0)
  end
:hierarchy
  begin
    root lhipjoint rhipjoint lowerback
    lhipjoint lfemur
    lfemur ltibia
    ltibia lfoot
    lfoot ltoes
    rhipjoint rfemur
    rfemur rtibia
    rtibia rfoot
    rfoot rtoes
    lowerback upperback
    upperback thorax
    thorax lowerneck lclavicle rclavicle
    lowerneck upperneck
    upperneck head
    lclavicle lhumerus
    lhumerus lradius
    lradius lwrist
    lwrist lhand lthumb
    lhand lfingers
    rclavicle rhumerus
    rhumerus rradius
    rradius rwrist
    rwrist rhand rthumb
    rhand rfingers
  end

#!OML:ASF F:\VICON\USERDATA\INSTALL\rory3\rory3.ASF
:FULLY-SPECIFIED
:DEGREES
332
root 3.36135 16.4998 -2.34047 12.34 -28.3951 -25.2482
lowerback 6.35239 1.24874 9.39636
upperback 1.13386 2.41891 12.3256
thorax -2.54908 1.08139 7.61758
lowerneck -2.80334 -8.94273 -16.1238
upperneck 31.5222 -15.8386 14.2455
head 13.624 -7.71957 6.27286
rclavicle -4.53229e-014 -4.77083e-014
rhumerus -19.3575 0.0340708 -51.4239
rradius 68.3731
rwrist -9.74602
rhand -21.6038 26.1539
rfingers 7.12502
rthumb 4.79137 -3.77189
lclavicle -4.53229e-014 -4.77083e-014
lhumerus -30.4179 25.5871 12.8564
lradius 38.9152
lwrist -3.91371
lhand -17.9862 38.6172
lfingers 7.12502
lthumb 8.28368 68.4348
rfemur 23.509 8.33295 16.4807
rtibia 51.8465
rfoot 24.6628 -8.95682
rtoes 33.8351
lfemur -47.0798 13.2293 -6.29211
ltibia 36.7523
lfoot -12.528 15.1143
ltoes 7.00867
333
root 3.28289 16.36 -2.03355 11.4054 -28.2429 -25.3034
lowerback 6.49294 1.17632 9.44483
upperback 0.883898 2.3956 12.5826
thorax -2.9049 1.06411 7.88474
lowerneck -2.02997 -8.90928 -16.7535
upperneck 31.8476 -15.8612 14.1408
head 13.6651 -7.85743 6.38349
rclavicle -3.37934e-015 -1.7175e-013
rhumerus -20.8864 -0.766925 -50.5022
rradius 67.6867
rwrist -9.56209
rhand -21.796 25.918
rfingers 7.12502
rthumb 4.60575 -4.01189
lclavicle -3.37934e-015 -1.7175e-013
lhumerus -30.0981 24.9344 13.9314
lradius 39.6489
lwrist -3.74894
lhand -18.6278 39.5519
lfingers 7.12502
lthumb 7.66438 69.3931
rfemur 23.2543 9.64224 16.1583
rtibia 55.0008
rfoot 23.948 -9.96929
rtoes 36.1976
lfemur -47.8135 15.5249 -7.78545
ltibia 39.6168
lfoot -7.58417 15.8814
ltoes 12.4867
334
root 3.22311 16.2383 -1.74041 10.7636 -27.6824 -25.6708
lowerback 6.72744 0.937483 9.8442
upperback 0.515494 2.21217 12.9247
thorax -3.42108 0.957559 8.07311
lowerneck -1.28438 -8.84411 -17.3154
upperneck 32.1223 -15.8337 14.0057
head 13.6695 -7.96822 6.47402
rclavicle 2.97183e-014 -8.90555e-014
rhumerus -22.3424 -1.56375 -49.7593
rradius 66.9622
rwrist -9.31918
rhand -21.9368 25.795
rfingers 7.12502
rthumb 4.46982 -4.1378
lclavicle 2.97183e-014 -8.90555e-014
lhumerus -30.1073 24.3498 15.0709
lradius 40.6033
lwrist -3.53118
lhand -19.6118 41.4191
lfingers 7.12502
lthumb 6.71462 71.2926
rfemur 22.4287 10.434 16.1951
rtibia 58.2918
rfoot 22.9435 -11.0273
rtoes 35.0418
lfemur -49.1907 17.3813 -8.70086
ltibia 43.0374
lfoot 0.105531 16.7859
ltoes 26.0685
335
root 3.17281 16.0925 -1.45617 10.1438 -26.9823 -26.1693
lowerback 6.92941 0.547445 10.6072
upperback 0.209417 1.83814 13.1852
thorax -3.8266 0.747274 7.99102
lowerneck -1.00282 -8.77918 -17.4412
upperneck 32.7158 -15.7034 13.455
head 13.8053 -8.00029 6.32108
rclavicle -2.09469e-014 -1.31993e-013
rhumerus -23.719 -2.57912 -49.2805
rradius 66.1571
rwrist -8.79066
rhand -21.6504 25.9444
rfingers 7.12502
rthumb 4.74636 -3.9824
lclavicle -2.09469e-014 -1.31993e-013
lhumerus -30.2653 24.2582 16.0414
lradius 41.5434
lwrist -3.7988
lhand -19.4498 41.329
lfingers 7.12502
lthumb 6.87098 71.1975
rfemur 21.2693 11.0316 16.3222
rtibia 61.7342
rfoot 22.0038 -11.7802
rtoes 31.3778
lfemur -50.5918 18.3915 -8.89829
ltibia 46.9563
lfoot 1.70548 12.2177
ltoes 32.6452
336
root 3.11974 15.9383 -1.22864 8.47477 -26.5735 -24.8843
lowerback 7.80061 0.206123 9.54532
upperback 0.0363243 1.49715 12.9622
thorax -4.50899 0.594241 8.38726
lowerneck -1.181 -8.74999 -17.0299
upperneck 33.5489 -15.5597 12.6452
head 14.0655 -7.966 5.955
rclavicle -5.62654e-014 -1.43125e-014
rhumerus -24.8961 -4.15296 -49.06
rradius 65.1117
rwrist -8.05786
rhand -21.245 26.2955
rfingers 7.12502
rthumb 5.13782 -3.62219
lclavicle -5.62654e-014 -1.43125e-014
lhumerus -30.2576 24.6478 17.0907
lradius 42.462
lwrist -4.12915
lhand -18.6123 39.8081
lfingers 7.12502
lthumb 7.67933 69.6487
rfemur 19.7569 11.6962 14.7207
rtibia 65.4881
rfoot 21.0575 -12.3656
rtoes 28.585
lfemur -51.2952 18.6262 -10.3778
ltibia 50.8147
lfoot -0.178247 8.58824
ltoes 31.2831
337
root 3.06405 15.7794 -1.01148 6.5329 -26.1086 -23.1651
lowerback 8.54837 -0.0716021 8.2032
upperback 0.178037 1.11095 12.563
thorax -4.76606 0.434836 8.74976
lowerneck -1.67198 -8.81797 -16.5693
upperneck 34.2296 -15.6112 12.1982
head 14.4049 -7.95835 5.6804
rclavicle -3.31877e-014 -3.02153e-014
rhumerus -25.8237 -6.22901 -48.9998
rradius 64.0091
rwrist -7.2909
rhand -21.3163 26.4913
rfingers 7.12502
rthumb 5.06895 -3.42806
lclavicle -3.31877e-014 -3.02153e-014
lhumerus -29.9254 25.7149 18.5479
lradius 43.5151
lwrist -4.28848
lhand -18.2762 38.9414
lfingers 7.12502
lthumb 8.00376 68.7699
rfemur 18.1198 12.2537 12.5171
rtibia 69.1455
rfoot 20.371 -13.046
rtoes 27.9768
lfemur -51.5892 18.6175 -12.2199
ltibia 54.4696
lfoot -2.0467 7.35318
ltoes 29.4059
338
root 3.01444 15.638 -0.809272 4.31363 -25.305 -21.1682
lowerback 9.49064 -0.387116 6.70252
upperback 0.463206 0.637428 12.0609
thorax -4.95686 0.235522 9.1152
lowerneck -1.90417 -8.94612 -16.3144
upperneck 34.4827 -15.8235 12.1169
head 14.5846 -8.01675 5.56412
rclavicle 3.46662e-014 -3.33958e-014
rhumerus -26.841 -8.4322 -48.8783
rradius 63.0286
rwrist -6.64608
rhand -21.8515 26.3591
rfingers 7.12502
rthumb 4.55221 -3.57202
lclavicle 3.46662e-014 -3.33958e-014
lhumerus -29.3166 27.8315 20.0752
lradius 44.2693
lwrist -5.83352
lhand -15.3048 34.2374
lfingers 7.12502
lthumb 10.8707 63.9361
rfemur 16.2913 12.3712 9.98032
rtibia 72.6003
rfoot 21.5696 -13.7831
rtoes 41.3463
lfemur -51.4643 18.2126 -14.2086
ltibia 57.5171
lfoot -3.64996 7.10568
ltoes 27.7366
339
root 2.98521 15.5116 -0.610151 2.08294 -24.5599 -19.1447
lowerback 10.7565 -0.68287 5.34265
upperback 0.617612 0.228943 11.4889
thorax -5.46174 0.0674182 9.35003
lowerneck -1.46747 -8.9914 -16.0286
upperneck 34.4665 -15.924 11.9025
head 14.444 -8.06642 5.4269
rclavicle 1.37658e-014 1.90833e-014
rhumerus -28.2596 -10.3209 -48.5913
rradius 62.0628
rwrist -6.21737
rhand -22.4317 26.1162
rfingers 7.12502
rthumb 3.99193 -3.82619
lclavicle 1.37658e-014 1.90833e-014
lhumerus -28.4602 28.5107 22.536
lradius 45.2064
lwrist -3.76778
lhand -19.8431 40.3172
lfingers 7.12502
lthumb 6.49125 70.1977
rfemur 14.0201 12.576 7.32224
rtibia 75.6818
rfoot 19.2225 -15.6103
rtoes 38.82
lfemur -50.8737 17.7768 -16.1956
ltibia 59.9212
lfoot -5.18256 6.42068
ltoes 27.9797
340
root 2.98264 15.3924 -0.395908 0.0382948 -24.4014 -17.4958
lowerback 11.2691 -0.724222 4.90858
upperback 1.34451 0.0675752 10.7739
thorax -4.94509 -0.0182793 8.79254
lowerneck -1.18272 -9.11326 -15.7903
upperneck 34.0333 -16.1842 12.1576
head 14.2308 -8.132 5.45049
rclavicle 8.87077e-015 -1.35174e-013
rhumerus -29.4454 -13.0988 -48.4216
rradius 60.9429
rwrist -5.41998
rhand -22.867 26.0376
rfingers 7.12502
rthumb 3.57154 -3.91221
lclavicle 8.87077e-015 -1.35174e-013
lhumerus -26.9706 31.0824 24.7738
lradius 45.3117
lwrist -5.34632
lhand -17.1224 36.5472
lfingers 7.12502
lthumb 9.11721 66.3301
rfemur 11.3262 13.3144 4.79655
rtibia 78.1748
rfoot 18.3714 -17.4407
rtoes 42.5541
lfemur -49.8214 17.8661 -17.8656
ltibia 61.8478
lfoot -6.80115 6.07892
ltoes 28.0096
341
root 3.00273 15.2853 -0.178598 -1.67703 -24.5962 -15.9941
lowerback 12.2427 -0.837681 4.46972
upperback 1.5702 -0.0742046 10.2667
thorax -5.23004 -0.0820463 8.52507
lowerneck -0.776577 -8.97027 -15.7865
upperneck 34.1603 -15.9894 11.9683
head 14.1404 -8.08772 5.42868
rclavicle -4.21796e-015 -3.49861e-014
rhumerus -30.8734 -14.5175 -48.1132
rradius 59.7469
rwrist -4.71286
rhand -23.617 25.8307
rfingers 7.12502
rthumb 2.84725 -4.13007
lclavicle -4.21796e-015 -3.49861e-014
lhumerus -26.9384 32.0005 26.9136
lradius 45.9525
lwrist -5.21117
lhand -15.6152 34.7111
lfingers 7.12502
lthumb 10.5713 64.4252
rfemur 8.03043 14.1081 2.12726
rtibia 80.072
rfoot 17.2179 -20.1397
rtoes 47.5564
lfemur -48.8443 18.1276 -19.4221
ltibia 63.5202
lfoot -8.23924 6.37921
ltoes 27.4416
